<?xml version="1.0" encoding="utf-8"?>
<!-- Generator: Adobe Illustrator 16.0.0, SVG Export Plug-In . SVG Version: 6.00 Build 0)  -->
<!DOCTYPE svg PUBLIC "-//W3C//DTD SVG 1.1//EN" "http://www.w3.org/Graphics/SVG/1.1/DTD/svg11.dtd">
<svg version="1.1" id="Layer_1" xmlns="http://www.w3.org/2000/svg" xmlns:xlink="http://www.w3.org/1999/xlink" x="0px" y="0px"
	 width="360px" height="95px" viewBox="0 0 360 95" enable-background="new 0 0 360 95" xml:space="preserve">
<g>
	<path fill="#139FDA" d="M195.948,83.512h6.624v1.222h-6.624v5.06h-1.43V78.262h8.687v1.222h-7.257V83.512z"/>
</g>
<g>
	<path fill="#139FDA" d="M222.161,84.699c0,1.572-0.462,2.844-1.385,3.813c-0.923,0.97-2.145,1.455-3.665,1.455
		c-1.532,0-2.766-0.485-3.7-1.455c-0.936-0.969-1.403-2.24-1.403-3.813v-6.488h1.43v6.488c0,1.193,0.335,2.152,1.005,2.875
		s1.56,1.084,2.669,1.084c1.086,0,1.961-0.361,2.624-1.084c0.664-0.723,0.996-1.682,0.996-2.875v-6.488h1.43V84.699z"/>
</g>
<g>
	<path fill="#139FDA" d="M240.169,89.918l-4.633-4.94h-2.226v4.94h-1.43V78.386h5.609c1.183,0,2.139,0.301,2.869,0.903
		c0.729,0.603,1.095,1.396,1.095,2.384s-0.365,1.784-1.095,2.393c-0.73,0.608-1.687,0.912-2.869,0.912h-0.217l4.688,4.94H240.169z
		 M237.49,83.738c0.761,0,1.373-0.189,1.837-0.568c0.465-0.378,0.697-0.877,0.697-1.497s-0.232-1.118-0.697-1.497
		c-0.464-0.379-1.076-0.568-1.837-0.568h-4.18v4.131H237.49z"/>
</g>
<g>
	<path fill="#139FDA" d="M261.055,89.918h-1.231l-7.926-9.157v9.157h-1.43V78.386h1.23l7.927,9.26v-9.26h1.43V89.918z"/>
</g>
<g>
	<path fill="#139FDA" d="M270.754,89.814V78.282h1.43v11.532H270.754z"/>
</g>
<g>
	<path fill="#139FDA" d="M287.461,79.311v10.31h-1.447v-10.31h-4.507v-1.223h10.442v1.223H287.461z"/>
</g>
<g>
	<path fill="#139FDA" d="M310.778,84.965c0,1.571-0.462,2.842-1.385,3.813c-0.923,0.969-2.145,1.453-3.665,1.453
		c-1.532,0-2.766-0.484-3.7-1.453c-0.936-0.971-1.403-2.241-1.403-3.813v-6.489h1.43v6.489c0,1.193,0.335,2.15,1.005,2.874
		c0.67,0.723,1.56,1.084,2.669,1.084c1.086,0,1.961-0.361,2.624-1.084c0.664-0.724,0.996-1.681,0.996-2.874v-6.489h1.43V84.965z"/>
</g>
<g>
	<path fill="#139FDA" d="M328.811,90.291l-4.633-4.939h-2.226v4.939h-1.43V78.759h5.609c1.183,0,2.139,0.302,2.869,0.903
		c0.729,0.604,1.095,1.397,1.095,2.385c0,0.986-0.365,1.784-1.095,2.393c-0.73,0.607-1.687,0.912-2.869,0.912h-0.217l4.688,4.939
		H328.811z M326.132,84.111c0.761,0,1.373-0.188,1.837-0.567c0.465-0.379,0.697-0.878,0.697-1.497c0-0.62-0.232-1.119-0.697-1.498
		c-0.464-0.379-1.076-0.568-1.837-0.568h-4.18v4.131H326.132z"/>
</g>
<g>
	<path fill="#139FDA" d="M348.129,90.201h-8.85V78.669h8.831v1.222h-7.401v3.908h6.877v1.222h-6.877v3.941h7.42V90.201z"/>
</g>
<g>
	<path fill="#171A60" d="M50.453,67.836h-6.409V61.35c-2.813,4.142-7.972,7.502-13.912,7.502c-11.567,0-20.164-9.457-20.164-21.102
		c0-11.645,8.597-21.18,20.164-21.18c5.784,0,10.786,3.205,13.677,7.112V9.688h6.644V67.836z M30.132,32.744
		c-7.581,0-13.521,6.721-13.521,15.084c0,8.207,5.939,14.928,13.521,14.928c7.425,0,13.677-6.721,13.677-14.928
		C43.809,39.465,37.557,32.744,30.132,32.744z"/>
</g>
<g>
	<path fill="#171A60" d="M98.576,55.525c-2.813,8.597-9.691,13.442-18.992,13.442c-11.567,0-20.633-9.223-20.633-21.024
		c0-11.645,9.066-21.18,20.242-21.18c10.395,0,20.399,8.597,20.321,22.899H65.672c0.859,8.362,7.268,13.286,13.912,13.286
		c5.705,0,9.77-2.734,11.958-7.424H98.576z M92.167,43.724c-1.642-6.565-7.112-10.942-12.974-10.942
		c-5.549,0-11.411,4.064-13.13,10.942H92.167z"/>
</g>
<g>
	<path fill="#171A60" d="M125.387,68.58c-11.098,0-20.164-9.379-20.164-21.023c0-11.645,9.066-21.18,20.164-21.18
		c8.988,0,16.022,5.314,18.757,13.443h-7.112c-2.267-4.377-6.409-7.347-11.646-7.347c-7.425,0-13.521,6.799-13.521,15.084
		c0,8.285,6.096,14.928,13.521,14.928c5.315,0,9.457-2.97,11.646-7.347h7.112C141.487,63.266,134.375,68.58,125.387,68.58z"/>
</g>
<g>
	<path fill="#171A60" d="M189.657,48.021c0,11.567-8.753,20.946-20.243,20.946c-11.411,0-20.242-9.379-20.242-20.946
		c0-11.723,8.832-21.258,20.242-21.258C180.904,26.764,189.657,36.299,189.657,48.021z M183.014,48.021
		c0-8.362-6.096-15.162-13.599-15.162c-7.425,0-13.521,6.799-13.521,15.162c0,8.207,6.096,14.85,13.521,14.85
		C176.917,62.871,183.014,56.229,183.014,48.021z"/>
</g>
<g>
	<path fill="#171A60" d="M206.424,27.742h9.145v6.331h-9.145v33.763h-6.564V34.073h-5.471v-6.331h5.471v-1.563
		c0-5.862,1.563-10.317,4.611-13.052c2.813-2.579,6.564-3.595,11.254-3.048v6.018c-3.048-0.235-5.236,0.313-6.8,1.797
		c-2.031,1.876-2.501,5.549-2.501,8.285V27.742z"/>
</g>
<g>
	<path fill="#171A60" d="M306.239,33.393c-6.956-0.391-12.896,3.283-12.896,11.333v23.291H286.7v-40.25h6.409v4.533
		c3.048-4.298,8.519-6.018,13.13-5.471V33.393z"/>
</g>
<g>
	<path fill="#171A60" d="M347.22,68.016h-6.565V43.553c0-6.174-3.438-10.707-9.848-10.707c-6.096,0-10.551,4.533-10.551,10.551
		v24.619h-6.644v-40.25h6.409v4.376c2.735-3.36,6.878-5.393,11.724-5.393c9.847,0,15.475,7.034,15.475,17.038V68.016z"/>
</g>
<path fill-rule="evenodd" clip-rule="evenodd" fill="#171A60" d="M234.721,36.135l-6.119,4.699
	c-0.43,2.834-0.107,8.398-0.107,11.508c0,3.663-0.537,7.845,1.181,10.678c1.396,2.247,3.757,4.183,7.621,4.286h23.51
	c3.757-0.069,6.226-1.901,7.621-4.182c1.825-2.938,1.288-6.704,1.288-10.54c0-3.905,0.107-7.914,0-11.819
	c-2.039-1.14-4.079-3.49-6.226-4.63c-0.215,6.15,0,13.098,0,19.352c0,6.67,0.858,5.599-14.17,5.599
	c-14.706,0-14.599,1.175-14.599-5.114C234.721,49.37,234.721,42.734,234.721,36.135z"/>
<path fill-rule="evenodd" clip-rule="evenodd" fill="#139FDA" d="M249.212,19.788l16.531,12.994
	c1.396,1.141,11.379,9.33,12.667,9.572c1.933,0.346,3.864-1.521,3.543-3.663c-0.215-1.659-2.255-2.903-3.436-3.802l-20.825-16.38
	c-10.306-8.087-7.085-7.672-17.391,0.173l-20.825,16.38c-1.61,1.279-3.22,2.178-3.22,4.078c-0.107,1.9,1.717,3.594,3.542,3.214
	c1.503-0.311,18.571-14.203,21.04-16.139c1.396-1.105,2.898-2.246,4.187-3.283C245.884,22.312,248.354,20.1,249.212,19.788z"/>
</svg>
